HIERARCHY
ROOT Hips
{
  OFFSET 0.000000 95.000000 0.000000
  CHANNELS 6 Xposition Yposition Zposition Zrotation Xrotation Yrotation
  JOINT Spine
  {
    OFFSET 0.000000 10.000000 0.000000
    CHANNELS 3 Zrotation Xrotation Yrotation
    JOINT Spine1
    {
      OFFSET 0.000000 12.000000 0.000000
      CHANNELS 3 Zrotation Xrotation Yrotation
      JOINT Spine2
      {
        OFFSET 0.000000 12.000000 0.000000
        CHANNELS 3 Zrotation Xrotation Yrotation
        JOINT Neck
        {
          OFFSET 0.000000 10.000000 0.000000
          CHANNELS 3 Zrotation Xrotation Yrotation
          JOINT Head
          {
            OFFSET 0.000000 8.000000 0.000000
            CHANNELS 3 Zrotation Xrotation Yrotation
            End Site
            {
              OFFSET 0.000000 10.000000 0.000000
            }
          }
        }
        JOINT LeftShoulder
        {
          OFFSET 6.000000 8.000000 0.000000
          CHANNELS 3 Zrotation Xrotation Yrotation
          JOINT LeftArm
          {
            OFFSET 12.000000 0.000000 0.000000
            CHANNELS 3 Zrotation Xrotation Yrotation
            JOINT LeftForeArm
            {
              OFFSET 24.000000 0.000000 0.000000
              CHANNELS 3 Zrotation Xrotation Yrotation
              JOINT LeftHand
              {
                OFFSET 22.000000 0.000000 0.000000
                CHANNELS 3 Zrotation Xrotation Yrotation
                JOINT LeftHandThumb1
                {
                  OFFSET 1.800000 -1.400000 0.500000
                  CHANNELS 3 Zrotation Xrotation Yrotation
                  JOINT LeftHandThumb2
                  {
                    OFFSET 2.400000 0.000000 0.000000
                    CHANNELS 3 Zrotation Xrotation Yrotation
                    JOINT LeftHandThumb3
                    {
                      OFFSET 1.900000 0.000000 0.000000
                      CHANNELS 3 Zrotation Xrotation Yrotation
                      End Site
                      {
                        OFFSET 1.600000 0.000000 0.000000
                      }
                    }
                  }
                }
                JOINT LeftHandIndex1
                {
                  OFFSET 6.600000 1.200000 0.300000
                  CHANNELS 3 Zrotation Xrotation Yrotation
                  JOINT LeftHandIndex2
                  {
                    OFFSET 2.000000 0.000000 0.000000
                    CHANNELS 3 Zrotation Xrotation Yrotation
                    JOINT LeftHandIndex3
                    {
                      OFFSET 1.200000 0.000000 0.000000
                      CHANNELS 3 Zrotation Xrotation Yrotation
                      End Site
                      {
                        OFFSET 1.000000 0.000000 0.000000
                      }
                    }
                  }
                }
                JOINT LeftHandMiddle1
                {
                  OFFSET 7.200000 0.000000 0.300000
                  CHANNELS 3 Zrotation Xrotation Yrotation
                  JOINT LeftHandMiddle2
                  {
                    OFFSET 3.000000 0.000000 0.000000
                    CHANNELS 3 Zrotation Xrotation Yrotation
                    JOINT LeftHandMiddle3
                    {
                      OFFSET 2.000000 0.000000 0.000000
                      CHANNELS 3 Zrotation Xrotation Yrotation
                      End Site
                      {
                        OFFSET 1.600000 0.000000 0.000000
                      }
                    }
                  }
                }
                JOINT LeftHandRing1
                {
                  OFFSET 7.100000 -1.000000 0.400000
                  CHANNELS 3 Zrotation Xrotation Yrotation
                  JOINT LeftHandRing2
                  {
                    OFFSET 2.600000 0.000000 0.000000
                    CHANNELS 3 Zrotation Xrotation Yrotation
                    JOINT LeftHandRing3
                    {
                      OFFSET 1.600000 0.000000 0.000000
                      CHANNELS 3 Zrotation Xrotation Yrotation
                      End Site
                      {
                        OFFSET 1.300000 0.000000 0.000000
                      }
                    }
                  }
                }
                JOINT LeftHandPinky1
                {
                  OFFSET 6.500000 -2.000000 0.500000
                  CHANNELS 3 Zrotation Xrotation Yrotation
                  JOINT LeftHandPinky2
                  {
                    OFFSET 1.900000 0.000000 0.000000
                    CHANNELS 3 Zrotation Xrotation Yrotation
                    JOINT LeftHandPinky3
                    {
                      OFFSET 1.400000 0.000000 0.000000
                      CHANNELS 3 Zrotation Xrotation Yrotation
                      End Site
                      {
                        OFFSET 1.300000 0.000000 0.000000
                      }
                    }
                  }
                }
              }
            }
          }
        }
        JOINT RightShoulder
        {
          OFFSET -6.000000 8.000000 0.000000
          CHANNELS 3 Zrotation Xrotation Yrotation
          JOINT RightArm
          {
            OFFSET -12.000000 0.000000 0.000000
            CHANNELS 3 Zrotation Xrotation Yrotation
            JOINT RightForeArm
            {
              OFFSET -24.000000 0.000000 0.000000
              CHANNELS 3 Zrotation Xrotation Yrotation
              JOINT RightHand
              {
                OFFSET -22.000000 0.000000 0.000000
                CHANNELS 3 Zrotation Xrotation Yrotation
                JOINT RightHandThumb1
                {
                  OFFSET -1.800000 -1.400000 0.500000
                  CHANNELS 3 Zrotation Xrotation Yrotation
                  JOINT RightHandThumb2
                  {
                    OFFSET -2.400000 0.000000 0.000000
                    CHANNELS 3 Zrotation Xrotation Yrotation
                    JOINT RightHandThumb3
                    {
                      OFFSET -1.900000 0.000000 0.000000
                      CHANNELS 3 Zrotation Xrotation Yrotation
                      End Site
                      {
                        OFFSET -1.600000 0.000000 0.000000
                      }
                    }
                  }
                }
                JOINT RightHandIndex1
                {
                  OFFSET -6.600000 1.200000 0.300000
                  CHANNELS 3 Zrotation Xrotation Yrotation
                  JOINT RightHandIndex2
                  {
                    OFFSET -2.000000 0.000000 0.000000
                    CHANNELS 3 Zrotation Xrotation Yrotation
                    JOINT RightHandIndex3
                    {
                      OFFSET -1.200000 0.000000 0.000000
                      CHANNELS 3 Zrotation Xrotation Yrotation
                      End Site
                      {
                        OFFSET -1.000000 0.000000 0.000000
                      }
                    }
                  }
                }
                JOINT RightHandMiddle1
                {
                  OFFSET -7.200000 0.000000 0.300000
                  CHANNELS 3 Zrotation Xrotation Yrotation
                  JOINT RightHandMiddle2
                  {
                    OFFSET -3.000000 0.000000 0.000000
                    CHANNELS 3 Zrotation Xrotation Yrotation
                    JOINT RightHandMiddle3
                    {
                      OFFSET -2.000000 0.000000 0.000000
                      CHANNELS 3 Zrotation Xrotation Yrotation
                      End Site
                      {
                        OFFSET -1.600000 0.000000 0.000000
                      }
                    }
                  }
                }
                JOINT RightHandRing1
                {
                  OFFSET -7.100000 -1.000000 0.400000
                  CHANNELS 3 Zrotation Xrotation Yrotation
                  JOINT RightHandRing2
                  {
                    OFFSET -2.600000 0.000000 0.000000
                    CHANNELS 3 Zrotation Xrotation Yrotation
                    JOINT RightHandRing3
                    {
                      OFFSET -1.600000 0.000000 0.000000
                      CHANNELS 3 Zrotation Xrotation Yrotation
                      End Site
                      {
                        OFFSET -1.300000 0.000000 0.000000
                      }
                    }
                  }
                }
                JOINT RightHandPinky1
                {
                  OFFSET -6.500000 -2.000000 0.500000
                  CHANNELS 3 Zrotation Xrotation Yrotation
                  JOINT RightHandPinky2
                  {
                    OFFSET -1.900000 0.000000 0.000000
                    CHANNELS 3 Zrotation Xrotation Yrotation
                    JOINT RightHandPinky3
                    {
                      OFFSET -1.400000 0.000000 0.000000
                      CHANNELS 3 Zrotation Xrotation Yrotation
                      End Site
                      {
                        OFFSET -1.300000 0.000000 0.000000
                      }
                    }
                  }
                }
              }
            }
          }
        }
      }
    }
  }
  JOINT LeftUpLeg
  {
    OFFSET 10.000000 -5.000000 0.000000
    CHANNELS 3 Zrotation Xrotation Yrotation
    JOINT LeftLeg
    {
      OFFSET 0.000000 -42.000000 0.000000
      CHANNELS 3 Zrotation Xrotation Yrotation
      JOINT LeftFoot
      {
        OFFSET 0.000000 -42.000000 4.000000
        CHANNELS 3 Zrotation Xrotation Yrotation
        End Site
        {
          OFFSET 0.000000 0.000000 12.000000
        }
      }
    }
  }
  JOINT RightUpLeg
  {
    OFFSET -10.000000 -5.000000 0.000000
    CHANNELS 3 Zrotation Xrotation Yrotation
    JOINT RightLeg
    {
      OFFSET 0.000000 -42.000000 0.000000
      CHANNELS 3 Zrotation Xrotation Yrotation
      JOINT RightFoot
      {
        OFFSET 0.000000 -42.000000 4.000000
        CHANNELS 3 Zrotation Xrotation Yrotation
        End Site
        {
          OFFSET 0.000000 0.000000 12.000000
        }
      }
    }
  }
}
MOTION
Frames: 10
Frame Time: 0.033333
0.0000 95.0000 0.0000 0.0000 0.0000 0.0000 0.0000 0.0000 0.0000 0.0000 0.0000 0.0000 0.0000 0.0000 0.0000 0.0000 0.0000 0.0000 0.0000 0.0000 0.0000 0.0000 0.0000 0.0000 -69.4974 16.7079 23.9048 -1.6103 -0.7132 1.6971 -166.8212 74.7050 71.5061 100.9819 -20.8237 4.7601 6.1078 0.0000 0.0000 29.7079 0.0000 0.0000 30.2787 -4.2329 5.7593 27.4475 0.0000 0.0000 20.0683 0.0000 0.0000 27.3969 -0.6895 -1.9435 35.6101 0.0000 0.0000 2.9835 0.0000 0.0000 19.3994 -1.2676 6.3327 47.0693 0.0000 0.0000 4.1940 0.0000 0.0000 9.0672 5.6989 27.6215 26.7576 0.0000 0.0000 11.3387 0.0000 0.0000 0.0000 0.0000 0.0000 85.8278 -29.6926 31.8275 -141.6238 36.1639 -58.7423 230.2935 -23.4170 124.0323 -62.4791 -12.3068 -7.9492 5.2548 0.0000 0.0000 28.7962 0.0000 0.0000 6.5450 0.2266 -0.5530 3.0625 0.0000 0.0000 2.1499 0.0000 0.0000 -3.6616 -0.0597 2.9054 10.7022 0.0000 0.0000 15.0779 0.0000 0.0000 -16.6893 -0.8922 5.7784 110.0000 0.0000 0.0000 23.0976 0.0000 0.0000 -33.5442 -2.4710 9.4338 110.0000 0.0000 0.0000 28.5648 0.0000 0.0000 0.0000 0.0000 0.0000 0.0000 0.0000 0.0000 0.0000 0.0000 0.0000 0.0000 0.0000 0.0000 0.0000 0.0000 0.0000 0.0000 0.0000 0.0000
0.0000 95.0000 0.0000 0.0000 0.0000 0.0000 0.0000 0.0000 0.0000 0.0000 0.0000 0.0000 0.0000 0.0000 0.0000 0.0000 0.0000 0.0000 0.0000 0.0000 0.0000 0.0000 0.0000 0.0000 -69.1893 17.1387 24.6486 -1.6541 -0.8046 1.8682 -168.4718 74.6809 75.9770 105.7236 -22.2302 6.0298 6.7247 0.0000 0.0000 29.4620 0.0000 0.0000 33.3533 -6.9989 10.4335 30.7176 0.0000 0.0000 22.2088 0.0000 0.0000 31.5444 -2.8181 5.1826 40.2768 0.0000 0.0000 7.6384 0.0000 0.0000 24.3754 -2.3555 13.4784 51.5440 0.0000 0.0000 5.8447 0.0000 0.0000 14.7878 4.6358 32.0962 29.9371 0.0000 0.0000 10.5476 0.0000 0.0000 0.0000 0.0000 0.0000 85.7996 -30.2228 32.4071 -140.7876 33.3509 -57.9721 229.7906 -24.1332 125.2598 -60.9042 -11.8790 -8.3157 4.1496 0.0000 0.0000 27.6589 0.0000 0.0000 7.4552 0.2206 -0.9959 3.0175 0.0000 0.0000 2.9258 0.0000 0.0000 -0.2976 -0.0049 2.8898 8.1947 0.0000 0.0000 9.2001 0.0000 0.0000 -13.7930 -0.8816 5.9456 110.0000 0.0000 0.0000 20.5630 0.0000 0.0000 -33.4570 -2.4763 10.2806 110.0000 0.0000 0.0000 24.1397 0.0000 0.0000 0.0000 0.0000 0.0000 0.0000 0.0000 0.0000 0.0000 0.0000 0.0000 0.0000 0.0000 0.0000 0.0000 0.0000 0.0000 0.0000 0.0000 0.0000
0.0000 95.0000 0.0000 0.0000 0.0000 0.0000 0.0000 0.0000 0.0000 0.0000 0.0000 0.0000 0.0000 0.0000 0.0000 0.0000 0.0000 0.0000 0.0000 0.0000 0.0000 0.0000 0.0000 0.0000 -68.9146 17.1722 24.8192 -2.0130 -0.4381 1.5426 -173.2601 74.1798 78.7393 110.1109 -23.9861 8.2470 7.5434 0.0000 0.0000 29.0517 0.0000 0.0000 36.0471 -10.1622 15.3435 34.3580 0.0000 0.0000 24.2624 0.0000 0.0000 35.3794 -5.5278 12.4425 44.8923 0.0000 0.0000 12.0916 0.0000 0.0000 29.1038 -4.0379 20.5785 55.2767 0.0000 0.0000 9.0022 0.0000 0.0000 20.2575 3.2106 36.5342 33.5046 0.0000 0.0000 10.6109 0.0000 0.0000 0.0000 0.0000 0.0000 85.7201 -30.3528 32.5883 -140.8176 31.7785 -57.6127 229.3345 -22.2359 128.7431 -59.9662 -11.6996 -7.8564 4.5941 0.0000 0.0000 24.5449 0.0000 0.0000 7.9735 0.2218 -1.2357 2.9974 0.0000 0.0000 2.9601 0.0000 0.0000 0.9643 0.0175 2.6896 9.6481 0.0000 0.0000 7.1297 0.0000 0.0000 -12.5078 -0.9174 7.2661 110.0000 0.0000 0.0000 22.4409 0.0000 0.0000 -34.3459 -2.4477 14.3897 110.0000 0.0000 0.0000 25.7487 0.0000 0.0000 0.0000 0.0000 0.0000 0.0000 0.0000 0.0000 0.0000 0.0000 0.0000 0.0000 0.0000 0.0000 0.0000 0.0000 0.0000 0.0000 0.0000 0.0000
0.0000 95.0000 0.0000 0.0000 0.0000 0.0000 0.0000 0.0000 0.0000 0.0000 0.0000 0.0000 0.0000 0.0000 0.0000 0.0000 0.0000 0.0000 0.0000 0.0000 0.0000 0.0000 0.0000 0.0000 -68.6827 17.3396 25.1627 -1.7838 -0.7762 1.9179 -175.2893 74.2371 83.3644 113.5470 -26.2005 11.9257 8.6070 0.0000 0.0000 28.4128 0.0000 0.0000 37.9983 -13.5886 20.4820 38.2031 0.0000 0.0000 26.2131 0.0000 0.0000 38.4487 -8.6550 19.7155 49.1700 0.0000 0.0000 16.1620 0.0000 0.0000 33.1462 -6.1474 27.5567 58.3402 0.0000 0.0000 12.1300 0.0000 0.0000 25.1918 1.5711 40.9432 37.1567 0.0000 0.0000 11.5297 0.0000 0.0000 0.0000 0.0000 0.0000 85.8977 -30.5739 32.7276 -140.8738 30.9849 -57.6841 230.0083 -22.3632 130.4691 -59.9216 -11.8309 -6.6702 4.9611 0.0000 0.0000 22.8005 0.0000 0.0000 7.2277 0.2760 -0.4198 3.3024 0.0000 0.0000 2.9392 0.0000 0.0000 -0.3942 -0.0012 4.4343 12.2980 0.0000 0.0000 9.8871 0.0000 0.0000 -14.1278 -0.9494 10.0570 86.2011 0.0000 0.0000 53.1261 0.0000 0.0000 -31.2613 -2.6526 15.7901 96.3786 0.0000 0.0000 40.5138 0.0000 0.0000 0.0000 0.0000 0.0000 0.0000 0.0000 0.0000 0.0000 0.0000 0.0000 0.0000 0.0000 0.0000 0.0000 0.0000 0.0000 0.0000 0.0000 0.0000
0.0000 95.0000 0.0000 0.0000 0.0000 0.0000 0.0000 0.0000 0.0000 0.0000 0.0000 0.0000 0.0000 0.0000 0.0000 0.0000 0.0000 0.0000 0.0000 0.0000 0.0000 0.0000 0.0000 0.0000 -68.7632 17.5235 25.3879 -1.2279 -0.9172 1.8400 -178.1528 74.1724 87.4903 115.2259 -28.8779 17.6708 9.9441 0.0000 0.0000 27.4687 0.0000 0.0000 38.8816 -17.0580 25.8522 42.0947 0.0000 0.0000 28.0489 0.0000 0.0000 40.3736 -11.9209 26.9339 52.9363 0.0000 0.0000 19.7929 0.0000 0.0000 36.1429 -8.4262 34.3864 60.8184 0.0000 0.0000 14.9878 0.0000 0.0000 29.3427 -0.1065 45.3406 40.7021 0.0000 0.0000 13.1553 0.0000 0.0000 0.0000 0.0000 0.0000 85.8125 -30.8980 33.1186 -140.9546 30.8554 -58.1414 229.9558 -22.4607 130.9109 -59.1132 -11.6315 -6.7419 5.6109 0.0000 0.0000 22.8709 0.0000 0.0000 8.1824 0.3392 -0.2624 3.6185 0.0000 0.0000 2.4855 0.0000 0.0000 -0.7851 -0.0038 4.2121 14.1354 0.0000 0.0000 11.9950 0.0000 0.0000 -13.7175 -0.9312 8.4632 84.9068 0.0000 0.0000 57.1482 0.0000 0.0000 -30.5153 -2.6253 13.2634 88.0841 0.0000 0.0000 48.2966 0.0000 0.0000 0.0000 0.0000 0.0000 0.0000 0.0000 0.0000 0.0000 0.0000 0.0000 0.0000 0.0000 0.0000 0.0000 0.0000 0.0000 0.0000 0.0000 0.0000
0.0000 95.0000 0.0000 0.0000 0.0000 0.0000 0.0000 0.0000 0.0000 0.0000 0.0000 0.0000 0.0000 0.0000 0.0000 0.0000 0.0000 0.0000 0.0000 0.0000 0.0000 0.0000 0.0000 0.0000 -68.4848 17.6665 25.7208 -0.9070 -1.1251 1.9773 -179.7612 74.0752 92.2615 114.2131 -31.7016 26.0365 11.5475 0.0000 0.0000 26.1448 0.0000 0.0000 38.4938 -20.2947 31.4415 45.8928 0.0000 0.0000 29.7622 0.0000 0.0000 40.9395 -14.9911 34.0609 56.1187 0.0000 0.0000 22.9751 0.0000 0.0000 37.8825 -10.5794 41.0612 62.7984 0.0000 0.0000 17.5559 0.0000 0.0000 32.5409 -1.6427 49.7370 44.0330 0.0000 0.0000 15.2763 0.0000 0.0000 0.0000 0.0000 0.0000 85.8445 -30.7031 32.8939 -140.6149 31.7740 -57.9929 232.2702 -24.5039 129.6752 -58.7274 -11.5789 -6.4462 6.0934 0.0000 0.0000 22.8240 0.0000 0.0000 9.0283 0.4487 0.4273 3.4152 0.0000 0.0000 2.4656 0.0000 0.0000 -1.2451 0.0020 4.9598 24.8307 0.0000 0.0000 34.6718 0.0000 0.0000 -13.8306 -0.9362 8.8428 92.7612 0.0000 0.0000 48.2727 0.0000 0.0000 -30.8246 -2.6092 13.1920 90.3554 0.0000 0.0000 43.3406 0.0000 0.0000 0.0000 0.0000 0.0000 0.0000 0.0000 0.0000 0.0000 0.0000 0.0000 0.0000 0.0000 0.0000 0.0000 0.0000 0.0000 0.0000 0.0000 0.0000
0.0000 95.0000 0.0000 0.0000 0.0000 0.0000 0.0000 0.0000 0.0000 0.0000 0.0000 0.0000 0.0000 0.0000 0.0000 0.0000 0.0000 0.0000 0.0000 0.0000 0.0000 0.0000 0.0000 0.0000 -68.1509 17.5543 25.7159 -1.0457 -1.0459 1.9489 -182.6090 73.5754 95.8639 109.8162 -33.8192 37.1335 13.3428 0.0000 0.0000 24.3988 0.0000 0.0000 36.8134 -23.0238 37.1843 49.4863 0.0000 0.0000 31.3488 0.0000 0.0000 40.1381 -17.5526 41.0443 58.7210 0.0000 0.0000 25.7286 0.0000 0.0000 38.3317 -12.3339 47.5543 64.3635 0.0000 0.0000 19.8572 0.0000 0.0000 34.7201 -2.8793 54.1210 47.0976 0.0000 0.0000 17.6899 0.0000 0.0000 0.0000 0.0000 0.0000 85.7384 -30.2212 32.4383 -140.1315 33.2814 -57.5533 233.4265 -24.6691 129.1511 -58.7773 -11.6010 -6.3660 7.6896 0.0000 0.0000 21.6987 0.0000 0.0000 9.6131 0.4997 0.7112 3.6813 0.0000 0.0000 2.2484 0.0000 0.0000 -1.6337 -0.0053 4.3971 32.6121 0.0000 0.0000 61.7330 0.0000 0.0000 -13.2280 -0.9156 7.4362 93.4891 0.0000 0.0000 47.3420 0.0000 0.0000 -29.7095 -2.5928 11.4283 86.3464 0.0000 0.0000 46.4729 0.0000 0.0000 0.0000 0.0000 0.0000 0.0000 0.0000 0.0000 0.0000 0.0000 0.0000 0.0000 0.0000 0.0000 0.0000 0.0000 0.0000 0.0000 0.0000 0.0000
0.0000 95.0000 0.0000 0.0000 0.0000 0.0000 0.0000 0.0000 0.0000 0.0000 0.0000 0.0000 0.0000 0.0000 0.0000 0.0000 0.0000 0.0000 0.0000 0.0000 0.0000 0.0000 0.0000 0.0000 -68.2108 17.5085 25.6221 -0.7695 -1.1056 1.8901 -184.7516 73.0458 99.5762 102.3540 -34.0005 49.9375 15.1598 0.0000 0.0000 22.2700 0.0000 0.0000 34.0125 -25.0335 42.9365 52.7972 0.0000 0.0000 32.8077 0.0000 0.0000 38.1551 -19.3790 47.7797 60.7946 0.0000 0.0000 28.0902 0.0000 0.0000 37.6237 -13.4879 53.7915 65.5895 0.0000 0.0000 21.9226 0.0000 0.0000 35.9169 -3.6990 58.4501 49.8793 0.0000 0.0000 20.2266 0.0000 0.0000 0.0000 0.0000 0.0000 85.5040 -29.7477 32.0581 -140.2264 34.3567 -57.3070 234.1725 -25.2474 128.0314 -58.4373 -11.6070 -5.7247 7.5164 0.0000 0.0000 21.4815 0.0000 0.0000 9.6456 0.5659 1.3896 4.3413 0.0000 0.0000 2.7494 0.0000 0.0000 -0.7399 0.0003 4.8191 38.3814 0.0000 0.0000 71.5523 0.0000 0.0000 -12.2581 -0.9464 8.0931 101.0988 0.0000 0.0000 42.1507 0.0000 0.0000 -29.2360 -2.6173 11.6795 93.2026 0.0000 0.0000 42.3745 0.0000 0.0000 0.0000 0.0000 0.0000 0.0000 0.0000 0.0000 0.0000 0.0000 0.0000 0.0000 0.0000 0.0000 0.0000 0.0000 0.0000 0.0000 0.0000 0.0000
0.0000 95.0000 0.0000 0.0000 0.0000 0.0000 0.0000 0.0000 0.0000 0.0000 0.0000 0.0000 0.0000 0.0000 0.0000 0.0000 0.0000 0.0000 0.0000 0.0000 0.0000 0.0000 0.0000 0.0000 -68.2476 17.2417 25.2216 -0.5623 -1.0208 1.6689 -187.3790 72.5699 102.7247 93.5234 -31.4524 62.0980 16.7335 0.0000 0.0000 19.9264 0.0000 0.0000 30.4152 -26.2219 48.4827 55.7812 0.0000 0.0000 34.1405 0.0000 0.0000 35.3135 -20.3691 54.1079 62.4132 0.0000 0.0000 30.1039 0.0000 0.0000 36.0131 -13.9415 59.6512 66.5423 0.0000 0.0000 23.7817 0.0000 0.0000 36.2546 -4.0392 62.6512 52.3825 0.0000 0.0000 22.7551 0.0000 0.0000 0.0000 0.0000 0.0000 85.3857 -29.1421 31.4720 -140.5813 35.8751 -57.1963 237.0961 -28.0647 124.5236 -56.8390 -11.3101 -5.2666 8.4049 0.0000 0.0000 20.4867 0.0000 0.0000 9.3252 0.6826 2.6790 5.5157 0.0000 0.0000 3.2412 0.0000 0.0000 -1.5466 0.0123 5.6858 46.5488 0.0000 0.0000 72.9743 0.0000 0.0000 -13.3078 -0.9372 8.3909 78.7958 0.0000 0.0000 53.6356 0.0000 0.0000 -28.4868 -2.6087 11.0113 73.4889 0.0000 0.0000 54.3761 0.0000 0.0000 0.0000 0.0000 0.0000 0.0000 0.0000 0.0000 0.0000 0.0000 0.0000 0.0000 0.0000 0.0000 0.0000 0.0000 0.0000 0.0000 0.0000 0.0000
0.0000 95.0000 0.0000 0.0000 0.0000 0.0000 0.0000 0.0000 0.0000 0.0000 0.0000 0.0000 0.0000 0.0000 0.0000 0.0000 0.0000 0.0000 0.0000 0.0000 0.0000 0.0000 0.0000 0.0000 -68.3031 17.0844 24.9701 -0.2933 -1.0214 1.5379 -188.8583 72.0629 106.1724 85.2581 -26.5593 71.2702 17.7661 0.0000 0.0000 17.6687 0.0000 0.0000 26.4259 -26.6134 53.5728 58.4227 0.0000 0.0000 35.3511 0.0000 0.0000 32.0022 -20.5559 59.8415 63.6556 0.0000 0.0000 31.8150 0.0000 0.0000 33.8219 -13.7111 64.9854 67.2772 0.0000 0.0000 25.4610 0.0000 0.0000 35.9228 -3.9052 66.6286 54.6233 0.0000 0.0000 25.1817 0.0000 0.0000 0.0000 0.0000 0.0000 85.1232 -28.7393 31.1762 -140.6542 37.1065 -57.0898 237.4117 -28.0192 123.9258 -56.7899 -11.3228 -5.1061 8.3690 0.0000 0.0000 20.7120 0.0000 0.0000 9.3916 0.6942 2.7831 5.7143 0.0000 0.0000 3.2747 0.0000 0.0000 -1.5442 0.0128 5.7220 47.5632 0.0000 0.0000 73.1837 0.0000 0.0000 -13.3058 -0.9384 8.4420 78.6066 0.0000 0.0000 53.5483 0.0000 0.0000 -28.5002 -2.6174 11.1977 73.1298 0.0000 0.0000 54.3751 0.0000 0.0000 0.0000 0.0000 0.0000 0.0000 0.0000 0.0000 0.0000 0.0000 0.0000 0.0000 0.0000 0.0000 0.0000 0.0000 0.0000 0.0000 0.0000 0.0000
